PathFileType	4	(X/Y/Z)	RBDS016static.trc
DataRate	CameraRate	NumFrames	NumMarkers	Units	OrigDataRate	OrigDataStartFrame	OrigNumFrames
150.000000	150.000000	4	48	mm	150.000000	75	150
Frame#	Time	L.Ankle			L.Ankle.Medial			L.ASIS			L.GTR			L.Heel.Bottom			L.Heel.Lateral			L.Heel.Top			L.HF			L.Iliac.Crest			L.Knee			L.Knee.Medial			L.MT1			L.MT2			L.MT5			L.PSIS			L.Shank.Bottom.Lateral			L.Shank.Bottom.Medial			L.Shank.Top.Lateral			L.Shank.Top.Medial			L.Thigh.Bottom.Lateral			L.Thigh.Bottom.Medial			L.Thigh.Top.Lateral			L.Thigh.Top.Medial			L.TT			R.Ankle			R.Ankle.Medial			R.ASIS			R.GTR			R.Heel.Bottom			R.Heel.Lateral			R.Heel.Top			R.HF			R.Iliac.Crest			R.Knee			R.Knee.Medial			R.MT1			R.MT2			R.MT5			R.PSIS			R.Shank.Bottom.Lateral			R.Shank.Bottom.Medial			R.Shank.Top.Lateral			R.Shank.Top.Medial			R.Thigh.Bottom.Lateral			R.Thigh.Bottom.Medial			R.Thigh.Top.Lateral			R.Thigh.Top.Medial			R.TT			
		X1	Y1	Z1	X2	Y2	Z2	X3	Y3	Z3	X4	Y4	Z4	X5	Y5	Z5	X6	Y6	Z6	X7	Y7	Z7	X8	Y8	Z8	X9	Y9	Z9	X10	Y10	Z10	X11	Y11	Z11	X12	Y12	Z12	X13	Y13	Z13	X14	Y14	Z14	X15	Y15	Z15	X16	Y16	Z16	X17	Y17	Z17	X18	Y18	Z18	X19	Y19	Z19	X20	Y20	Z20	X21	Y21	Z21	X22	Y22	Z22	X23	Y23	Z23	X24	Y24	Z24	X25	Y25	Z25	X26	Y26	Z26	X27	Y27	Z27	X28	Y28	Z28	X29	Y29	Z29	X30	Y30	Z30	X31	Y31	Z31	X32	Y32	Z32	X33	Y33	Z33	X34	Y34	Z34	X35	Y35	Z35	X36	Y36	Z36	X37	Y37	Z37	X38	Y38	Z38	X39	Y39	Z39	X40	Y40	Z40	X41	Y41	Z41	X42	Y42	Z42	X43	Y43	Z43	X44	Y44	Z44	X45	Y45	Z45	X46	Y46	Z46	X47	Y47	Z47	X48	Y48	Z48	

76	0.5	722.7305297851563	98.35722351074219	1045.081298828125	732.1367797851563	111.2344436645508	1132.308715820313	859.70751953125	944.9525756835938	1126.791748046875	783.843017578125	881.8948364257813	1054.325073242188	644.9984130859375	40.40932846069336	1088.101684570313	669.043701171875	62.28094863891602	1047.234252929688	654.3330688476563	87.99465942382813	1088.98046875	754.338623046875	444.7943420410156	1027.338623046875	775.0859375	1007.169799804688	1064.567504882813	757.831787109375	504.029541015625	1032.23046875	731.2553100585938	481.179931640625	1164.21630859375	861.1646118164063	60.56415557861328	1127.36767578125	865.5570068359375	70.35243225097656	1089.008544921875	828.0922241210938	52.85060882568359	1021.772338867188	663.5062255859375	967.4326171875	1182.963745117188	702.6707763671875	175.1646118164063	1039.402954101563	674.528564453125	178.8057861328125	1087.432739257813	695.5499267578125	254.9593048095703	1029.748046875	669.675537109375	259.1944274902344	1077.382568359375	746.4954833984375	586.7127075195313	1029.593872070313	684.4445190429688	592.76416015625	1068.20361328125	755.50244140625	696.2882690429688	1028.826171875	696.8438720703125	701.6441650390625	1067.255493164063	802.3025512695313	428.3325500488281	1091.282836914063	714.6448364257813	101.1216583251953	1410.836791992188	737.6112670898438	122.5302276611328	1325.91845703125	843.6416625976563	949.65576171875	1358.283813476563	763.7168579101563	888.1350708007813	1418.740234375	639.92333984375	41.45522308349609	1366.105224609375	668.7788696289063	64.89111328125	1406.4140625	652.2061157226563	92.25154876708984	1363.387817382813	741.4957275390625	450.4443969726563	1429.635131835938	759.1438598632813	1004.162963867188	1403.43994140625	741.7673950195313	513.6490478515625	1423.970458984375	729.9828491210938	485.7009582519531	1294.8662109375	855.3870849609375	61.31879425048828	1329.256103515625	862.5595092773438	70.75435638427734	1371.724975585938	824.7453002929688	48.59928131103516	1438.957641601563	657.6948852539063	967.943603515625	1284.564331054688	710.6726684570313	170.4518890380859	1420.052368164063	670.7555541992188	175.9055633544922	1388.034301757813	707.2299194335938	254.1651916503906	1435.701538085938	666.2180786132813	255.6285095214844	1401.586059570313	726.5236206054688	598.5897216796875	1431.897827148438	671.8578491210938	599.7354736328125	1383.692993164063	723.7312622070313	709.309814453125	1434.426879882813	673.7716064453125	709.58447265625	1387.474975585938	791.4696655273438	423.1832580566406	1375.242919921875	
77	0.5066666666666667	722.7330932617188	98.36201477050781	1045.0771484375	732.1408081054688	111.2279739379883	1132.317626953125	859.6898193359375	944.9622192382813	1126.826538085938	783.8099975585938	881.8951416015625	1054.349975585938	645.0039672851563	40.40863418579102	1088.106689453125	669.0453491210938	62.27960205078125	1047.247192382813	654.334716796875	87.98460388183594	1088.984741210938	754.34814453125	444.7958984375	1027.38916015625	775.0686645507813	1007.159912109375	1064.61181640625	757.826904296875	504.031982421875	1032.277099609375	731.2847290039063	481.1883239746094	1164.2509765625	861.1622924804688	60.56120300292969	1127.371948242188	865.5667724609375	70.37398529052734	1089.082275390625	828.0819091796875	52.85144424438477	1021.775695800781	663.5189819335938	967.4130249023438	1183.047241210938	702.6736450195313	175.1742858886719	1039.412475585938	674.5330200195313	178.8121032714844	1087.4453125	695.55126953125	254.9634704589844	1029.763916015625	669.6744384765625	259.2028198242188	1077.407348632813	746.4752197265625	586.7098388671875	1029.632080078125	684.4390258789063	592.7669677734375	1068.25	755.4901123046875	696.2930908203125	1028.865478515625	696.828369140625	701.6420288085938	1067.309936523438	802.2997436523438	428.3268127441406	1091.315307617188	714.654296875	101.1177673339844	1410.82470703125	737.6090087890625	122.5295639038086	1325.91552734375	843.6632080078125	949.641357421875	1358.340698242188	763.761474609375	888.1347045898438	1418.799438476563	639.9276123046875	41.4493522644043	1366.117797851563	668.7769165039063	64.88431549072266	1406.42236328125	652.2066040039063	92.25136566162109	1363.394897460938	741.5004272460938	450.374267578125	1429.448364257813	759.1814575195313	1004.156188964844	1403.497680664063	741.7952880859375	513.6444702148438	1424.012817382813	729.9799194335938	485.7044677734375	1294.910522460938	855.3886108398438	61.31512451171875	1329.259399414063	862.57275390625	70.75048828125	1371.72509765625	824.7413940429688	48.58576202392578	1438.958251953125	657.7108154296875	967.9334106445313	1284.632568359375	710.6778564453125	170.4469757080078	1420.062377929688	670.7593383789063	175.9082794189453	1388.056030273438	707.2357177734375	254.1556549072266	1435.7275390625	666.227783203125	255.6221923828125	1401.60498046875	726.573486328125	598.5874633789063	1431.947143554688	671.8857421875	599.744384765625	1383.770141601563	723.7891235351563	709.3123168945313	1434.477416992188	673.8073120117188	709.5875244140625	1387.55419921875	791.4630126953125	423.1769104003906	1375.278442382813	
78	0.5133333333333334	722.7359008789063	98.36534118652344	1045.095703125	732.1470336914063	111.2273788452148	1132.326171875	859.6920776367188	944.97119140625	1126.846069335938	783.787109375	881.8997802734375	1054.395141601563	645	40.4069709777832	1088.108032226563	669.0347290039063	62.29340744018555	1047.249755859375	654.3426513671875	87.99547576904297	1088.98974609375	754.3497924804688	444.8081359863281	1027.44775390625	775.0400390625	1007.156066894531	1064.63916015625	757.826416015625	504.0380249023438	1032.326782226563	731.2958374023438	481.1837768554688	1164.300170898438	861.1577758789063	60.56356048583984	1127.38623046875	865.5709228515625	70.42704010009766	1089.202880859375	828.0853881835938	52.85951614379883	1021.774963378906	663.5152587890625	967.4080810546875	1183.134887695313	702.669921875	175.1816101074219	1039.43212890625	674.5405883789063	178.8043975830078	1087.466918945313	695.5477905273438	254.9725036621094	1029.795532226563	669.6812744140625	259.2083435058594	1077.43896484375	746.4666137695313	586.7171020507813	1029.667114257813	684.4319458007813	592.7799072265625	1068.283813476563	755.4695434570313	696.2965087890625	1028.901000976563	696.8301391601563	701.6450805664063	1067.344360351563	802.2984619140625	428.3110046386719	1091.359619140625	714.6376953125	101.1199111938477	1410.833862304688	737.6130981445313	122.5311279296875	1325.927978515625	843.6978759765625	949.6203002929688	1358.382080078125	763.821044921875	888.1089477539063	1418.858764648438	639.9183959960938	41.45177459716797	1366.118774414063	668.7757568359375	64.87804412841797	1406.431274414063	652.2080078125	92.2515869140625	1363.393798828125	741.5183715820313	450.3680114746094	1429.485595703125	759.2122802734375	1004.145568847656	1403.548095703125	741.8046264648438	513.6334838867188	1424.065185546875	729.9528198242188	485.6983337402344	1294.956665039063	855.3814697265625	61.32930755615234	1329.251342773438	862.562255859375	70.75589752197266	1371.727416992188	824.7345581054688	48.59166717529297	1438.965209960938	657.7474975585938	967.9183959960938	1284.69287109375	710.6739501953125	170.4349822998047	1420.094116210938	670.7719116210938	175.9041748046875	1388.071533203125	707.2508544921875	254.1401214599609	1435.73876953125	666.2351684570313	255.6162719726563	1401.639770507813	726.6071166992188	598.5924682617188	1432.000732421875	671.9170532226563	599.7417602539063	1383.83154296875	723.84033203125	709.3050537109375	1434.536743164063	673.8533935546875	709.58349609375	1387.6064453125	791.4790649414063	423.1757507324219	1375.308959960938	
79	0.52	722.7374267578125	98.37653350830078	1045.100952148438	732.1455078125	111.2278518676758	1132.331420898438	859.6862182617188	944.9774169921875	1126.879638671875	783.7759399414063	881.8982543945313	1054.439697265625	644.9959106445313	40.40932464599609	1088.10986328125	669.0425415039063	62.2900276184082	1047.255859375	654.3474731445313	87.98511505126953	1088.994506835938	754.349853515625	444.8047790527344	1027.479370117188	775.0003051757813	1007.150695800781	1064.676635742188	757.8291015625	504.0416564941406	1032.353393554688	731.309814453125	481.1962890625	1164.340698242188	861.1676025390625	60.56586837768555	1127.380859375	865.55615234375	70.3692626953125	1089.020263671875	828.0914916992188	52.86224746704102	1021.77734375	663.5361328125	967.3921508789063	1183.205322265625	702.6678466796875	175.1907501220703	1039.448608398438	674.5419921875	178.8071594238281	1087.49267578125	695.5487670898438	254.9838256835938	1029.817016601563	669.6806030273438	259.2152099609375	1077.465454101563	746.4575805664063	586.718994140625	1029.68994140625	684.4253540039063	592.7637329101563	1068.328369140625	755.4646606445313	696.2901611328125	1028.941650390625	696.8182373046875	701.6458129882813	1067.37939453125	802.3140869140625	428.2986145019531	1091.392578125	714.6317138671875	101.1223373413086	1410.835693359375	737.6107177734375	122.5298919677734	1325.933227539063	843.7462158203125	949.6136474609375	1358.415283203125	763.866455078125	888.0986328125	1418.907104492188	639.9217529296875	41.45111083984375	1366.11962890625	668.7730712890625	64.86603546142578	1406.441772460938	652.2033081054688	92.24720001220703	1363.401489257813	741.5457153320313	450.3501892089844	1429.52294921875	759.2442016601563	1004.129028320313	1403.604858398438	741.843505859375	513.6295776367188	1424.1083984375	729.929443359375	485.7066040039063	1294.926147460938	855.3792114257813	61.32408142089844	1329.249755859375	862.55517578125	70.75918579101563	1371.734252929688	824.735595703125	48.59273529052734	1438.962768554688	657.7638549804688	967.8894653320313	1284.760620117188	710.6832885742188	170.4298553466797	1420.096435546875	670.7710571289063	175.8912048339844	1388.093505859375	707.2635498046875	254.1324920654297	1435.77099609375	666.248046875	255.6093139648438	1401.680908203125	726.6632080078125	598.5861206054688	1432.05908203125	671.9449462890625	599.755126953125	1383.92138671875	723.9016723632813	709.3014526367188	1434.5888671875	673.8982543945313	709.5912475585938	1387.67333984375	791.481201171875	423.1624755859375	1375.337890625	
